<?xml version="1.0" encoding="utf-8"?>
<!-- Generator: Adobe Illustrator 22.1.0, SVG Export Plug-In . SVG Version: 6.00 Build 0)  -->
<svg version="1.1" id="Layer_1" xmlns="http://www.w3.org/2000/svg" xmlns:xlink="http://www.w3.org/1999/xlink" x="0px" y="0px"
	 viewBox="0 0 1920 1080" style="enable-background:new 0 0 1920 1080;" xml:space="preserve">
<style type="text/css">
	.st0{fill:#22A5FF;}
	.st1{fill:#919191;}
	.st2{fill:#1A1A1A;}
</style>
<g>
	<g>
		<g>
			<g>
				<path class="st0" d="M905.6,651.3c1.5,6.5,1.6,13,1.6,13.7c0,1.4-0.1,14.4-5.7,26.2c-8.9,18.8-30.9,31.9-52.9,31.9
					c-0.7,0-1.4,0-2.2,0c-30.3-1.2-50.7-25.6-56.8-47.8c-3.1-11.1-2.9-22.9,0.4-35c4.9-17.8,15.7-28.7,20.8-33.9l0.1-0.1
					c42.4-42.9,57.2-69.3,62.3-81.3c3.9-9.2,4.4-13.9,3.6-18.6c-0.1-0.9-2.3-12.7-13-18.6c-1-0.6-5.2-2.8-11.1-3
					c-7.6-0.3-13,2.8-14.9,3.8c-2.1,1.2-6.7,4-9.8,9.7c-0.6,1.2-2.6,5-2.9,10.3c-0.6,11.6,7.3,19.8,8.8,21.3c5.9,6,12.7,8.2,16,8.9
					c-5.1,8-10.3,16-15.4,24c-4.1-1.1-8.8-2.8-14.7-6.5c-2.9-1.8-27.8-18-27.6-48c0-11.7,4-21,7.4-26.8c7.2-12.2,17.1-18,20.8-20.2
					c12.4-7.3,24.6-8.6,32.6-8.4c2.9,0.1,11.6,0.3,21.4,4.5c17.9,7.6,31.6,24.5,34.8,43.1c2.6,14.8-1.5,27-5.8,37.1
					c-10.5,24.7-34.5,56.3-69.2,91.4l-0.1,0.2c-3.7,3.7-9.9,10-12.5,19.6c-0.8,2.8-2.5,9.6-0.4,17.5c2.9,11,13.2,24.8,27.7,24.7
					c12.6-0.1,20.5-10.5,21-11.1c4.4-6,5.1-12.2,5.2-13.8c0.4-4.6-0.6-8.1-1.1-10.3c-0.4-1.5-1.7-6-5.1-10.9
					c-5.3-7.6-12.4-11.2-15.9-12.7c5.9-7,11.9-14.1,17.8-21.1c6.2,2.6,19.2,9.4,27.7,22.6C901.9,639.2,904.1,645,905.6,651.3z"/>
			</g>
			<path class="st0" d="M740.7,560.3h-63v-27.5h63c1.9,0,3.5-0.7,4.8-2c1.3-1.3,2-3,2-4.8c0-2-0.7-3.2-2-3.8c-1.3-0.6-3-0.9-4.8-0.9
				h-28.7c-4.8,0-9.3-0.9-13.4-2.7c-4.2-1.8-7.8-4.3-10.9-7.4c-3.1-3.1-5.5-6.8-7.3-11c-1.8-4.2-2.7-8.6-2.7-13.4
				c0-4.8,0.9-9.3,2.7-13.4c1.8-4.2,4.2-7.8,7.3-10.9c3.1-3.1,6.7-5.5,10.9-7.3c4.2-1.8,8.6-2.7,13.4-2.7h55.8v27.5h-55.8
				c-1.9,0-3.5,0.7-4.8,2c-1.3,1.3-2,3-2,4.8c0,2,0.7,3.6,2,5c1.3,1.4,3,2.1,4.8,2.1h28.7c4.7,0,9.2,0.8,13.3,2.4
				c4.2,1.6,7.8,3.8,10.9,6.6c3.1,2.8,5.6,6.2,7.4,10.2c1.8,4,2.7,8.3,2.7,13c0,4.8-0.9,9.2-2.7,13.4c-1.8,4.1-4.3,7.8-7.4,10.9
				c-3.1,3.1-6.7,5.6-10.9,7.4C749.9,559.4,745.4,560.3,740.7,560.3z"/>
			<path class="st0" d="M1027.4,473.7l-20.2,20.3c-1-2.8-2.4-5.4-4.1-7.6c-1.8-2.3-3.7-4.2-5.9-5.7c-2.2-1.5-4.6-2.7-7.1-3.5
				c-2.6-0.8-5.2-1.2-7.9-1.2c-3.8,0-7.3,0.8-10.6,2.3c-3.3,1.5-6.2,3.7-8.7,6.5c-2.5,2.8-4.4,6.1-5.8,9.9
				c-1.4,3.8-2.1,8.1-2.1,12.7c0,3.8,0.7,7.3,2.1,10.6c1.4,3.3,3.3,6.2,5.8,8.7c2.5,2.5,5.3,4.4,8.7,5.9c3.3,1.4,6.9,2.1,10.6,2.1
				c2.7,0,5.3-0.4,7.8-1.1c2.5-0.7,4.8-1.8,7-3.2c2.2-1.4,4.1-3.1,5.9-5c1.7-2,3.1-4.2,4.2-6.6l20.2,20.3c-2.6,3.6-5.5,6.9-8.8,9.8
				c-3.3,2.9-6.9,5.3-10.8,7.4c-3.9,2-7.9,3.6-12.2,4.6c-4.3,1-8.7,1.6-13.2,1.6c-7.6,0-14.8-1.4-21.5-4.3
				c-6.7-2.9-12.6-6.8-17.6-11.8c-5-5-9-10.8-11.9-17.5c-2.9-6.7-4.3-13.8-4.3-21.4c0-8.3,1.4-16,4.3-23.2
				c2.9-7.2,6.8-13.5,11.9-18.8c5-5.4,10.9-9.6,17.6-12.7c6.7-3.1,13.8-4.6,21.5-4.6c4.5,0,8.9,0.6,13.3,1.7c4.3,1.1,8.5,2.8,12.4,5
				c3.9,2.2,7.6,4.9,10.9,8C1022.1,466,1025,469.6,1027.4,473.7z"/>
			<path class="st0" d="M1068.6,560.3h-27.8V452.2h27.8V560.3z"/>
			<path class="st0" d="M1194.2,560.3h-6.7l-10.7-14.8c-2.6,2.4-5.4,4.6-8.3,6.6c-2.9,2.1-6,3.8-9.2,5.4c-3.2,1.5-6.5,2.7-9.9,3.6
				c-3.4,0.9-6.8,1.3-10.3,1.3c-7.6,0-14.8-1.3-21.5-3.8c-6.7-2.6-12.6-6.3-17.6-11.2c-5-4.9-9-10.9-11.9-17.9
				c-2.9-7.1-4.3-15.1-4.3-24.1c0-8.4,1.4-16.1,4.3-23.2c2.9-7,6.8-13.1,11.9-18.1c5-5,10.9-9,17.6-11.8c6.7-2.8,13.8-4.2,21.5-4.2
				c3.5,0,7,0.4,10.4,1.3c3.4,0.9,6.8,2.1,10,3.6c3.2,1.5,6.3,3.4,9.2,5.5c2.9,2.1,5.7,4.3,8.2,6.8l10.7-12.8h6.7V560.3z
				 M1166.5,505.3c0-3.8-0.7-7.4-2.2-11c-1.4-3.5-3.4-6.7-5.9-9.4c-2.5-2.7-5.4-4.9-8.7-6.6c-3.3-1.6-6.9-2.5-10.6-2.5
				c-3.8,0-7.3,0.6-10.6,1.9c-3.3,1.3-6.2,3.2-8.7,5.7c-2.5,2.5-4.4,5.6-5.8,9.2c-1.4,3.7-2.1,7.9-2.1,12.6c0,4.7,0.7,8.9,2.1,12.6
				c1.4,3.7,3.3,6.7,5.8,9.2c2.5,2.5,5.4,4.4,8.7,5.7c3.3,1.3,6.9,1.9,10.6,1.9c3.8,0,7.3-0.8,10.6-2.5c3.3-1.6,6.2-3.8,8.7-6.6
				c2.5-2.7,4.5-5.9,5.9-9.4C1165.8,512.7,1166.5,509.1,1166.5,505.3z"/>
			<path class="st0" d="M1243,560.3h-27.8V409.2h27.8V560.3z"/>
		</g>
		<g>
			<path class="st1" d="M738.8,722.5c-6.7,0-12.9-1.3-18.8-3.8c-5.9-2.5-11-6-15.4-10.4c-4.4-4.4-7.9-9.5-10.4-15.4
				c-2.5-5.9-3.8-12.1-3.8-18.8v-32.1H677v-27.5h13.4V587h27.5v27.6h41.8v27.5h-41.8v32.1c0,2.9,0.5,5.6,1.6,8.1
				c1.1,2.5,2.6,4.7,4.4,6.6c1.9,1.9,4.1,3.4,6.7,4.5c2.6,1.1,5.3,1.7,8.2,1.7h36.1v27.5H738.8z"/>
			<path class="st1" d="M1066.5,682.4c0,5.7-1.1,11-3.2,16c-2.2,5-5.1,9.4-8.8,13.1c-3.7,3.7-8.1,6.6-13.1,8.8
				c-5,2.2-10.4,3.2-16.1,3.2c-5.1,0-10-0.9-14.7-2.7c-4.7-1.8-9-4.4-12.8-7.8c-3.8,3.4-8,6-12.7,7.8c-4.7,1.8-9.6,2.7-14.8,2.7
				c-5.7,0-11.1-1.1-16.1-3.2c-5-2.2-9.3-5.1-13.1-8.8c-3.7-3.7-6.7-8.1-8.8-13.1c-2.2-5-3.2-10.3-3.2-16v-68.8h27.6v68.8
				c0,1.9,0.4,3.7,1.1,5.3c0.7,1.6,1.7,3.1,2.9,4.3c1.2,1.2,2.7,2.2,4.3,2.9c1.6,0.7,3.4,1.1,5.3,1.1c1.9,0,3.7-0.4,5.4-1.1
				c1.7-0.7,3.2-1.7,4.4-2.9c1.3-1.2,2.3-2.7,3-4.3c0.7-1.6,1.1-3.4,1.1-5.3v-68.8h27.5v68.8c0,1.9,0.4,3.7,1.1,5.3
				c0.7,1.6,1.7,3.1,3,4.3c1.2,1.2,2.7,2.2,4.3,2.9c1.6,0.7,3.4,1.1,5.3,1.1c1.9,0,3.7-0.4,5.4-1.1c1.7-0.7,3.1-1.7,4.4-2.9
				c1.2-1.2,2.2-2.7,3-4.3c0.7-1.6,1.1-3.4,1.1-5.3v-68.8h27.5V682.4z"/>
			<path class="st1" d="M1114.1,721.5h-27.6V613.4h6.7l9.1,10.5c4.4-4,9.5-7.1,15.1-9.3c5.6-2.2,11.5-3.3,17.6-3.3
				c6.6,0,12.8,1.3,18.7,3.8c5.9,2.5,11,6,15.3,10.4c4.4,4.4,7.8,9.6,10.3,15.4c2.5,5.9,3.8,12.2,3.8,18.8v61.8h-27.6v-61.8
				c0-2.8-0.5-5.5-1.6-8c-1.1-2.5-2.6-4.7-4.4-6.6c-1.9-1.9-4.1-3.4-6.6-4.4c-2.5-1.1-5.1-1.6-8-1.6c-2.9,0-5.6,0.5-8.2,1.6
				c-2.6,1.1-4.8,2.6-6.7,4.4c-1.9,1.9-3.4,4.1-4.4,6.6c-1.1,2.5-1.6,5.2-1.6,8V721.5z"/>
			<g>
				<path class="st1" d="M698,325.4V348h22.3v6.3H698v50.8c0,9.9,3.1,15.7,11.5,16.2c3,0.2,5.5,0,15.1,0.3v6.4
					c-4.5,0-11.3-0.1-16-0.1c-5.7,0-10.4-1.8-13.5-5.5c-3.5-4.1-4.8-10.7-4.8-18.6v-49.4h-7.5V348h7.5v-22.5L698,325.4z"/>
				<path class="st1" d="M737.6,311.7h7.7v51.4h0.3c2.2-4.4,6-8.5,10.7-11.3c4.5-2.8,9.8-4.5,15.8-4.5c7.4,0,27.1,3.7,27.1,32.8
					v47.1h-7.7V381c0-14.1-5.5-26.9-21.5-26.9c-11.1,0-20.2,8-23.6,17.7c-0.8,2.3-1.1,4.5-1.1,7.7v47.8h-7.7V311.7z"/>
				<path class="st1" d="M820.8,386.4c0,24.9,13.6,34.8,29.7,34.8c11.4,0,17.3-2.3,21.7-4.4l2,6.1c-3,1.6-11,5-24.7,5
					c-22.5,0-36.4-16.4-36.4-39.2c0-26.1,14.9-42.4,35.1-42.4c25.6,0,30.4,24.1,30.4,35.3c0,2.2,0,3.4-0.2,4.8H820.8z M870.6,380.2
					c0.2-10.9-4.4-27.5-23.4-27.5c-17.2,0-24.6,15.5-26,27.5H870.6z"/>
			</g>
		</g>
	</g>
	<g>
		<path class="st2" d="M765.1,760.7c0.1,0,0.2,0,0.3,0.1l0.9,1c-0.7,0.8-1.5,1.4-2.5,1.8c-1,0.4-2.1,0.7-3.5,0.7
			c-1.2,0-2.3-0.2-3.2-0.6c-1-0.4-1.8-1-2.5-1.7c-0.7-0.7-1.2-1.6-1.6-2.7s-0.6-2.2-0.6-3.4c0-1.2,0.2-2.4,0.6-3.4s1-1.9,1.7-2.7
			c0.7-0.7,1.6-1.3,2.6-1.7s2.1-0.6,3.4-0.6c1.2,0,2.3,0.2,3.1,0.6c0.9,0.4,1.7,0.9,2.3,1.5l-0.7,1c-0.1,0.1-0.1,0.1-0.2,0.2
			c-0.1,0-0.2,0.1-0.3,0.1c-0.1,0-0.2,0-0.3-0.1c-0.1-0.1-0.2-0.2-0.4-0.3c-0.2-0.1-0.3-0.2-0.5-0.3s-0.5-0.2-0.7-0.3
			s-0.6-0.2-1-0.3c-0.4-0.1-0.8-0.1-1.3-0.1c-0.9,0-1.7,0.2-2.4,0.5s-1.4,0.7-1.9,1.3s-0.9,1.2-1.2,2s-0.4,1.7-0.4,2.7
			c0,1,0.1,1.9,0.4,2.7s0.7,1.5,1.2,2s1.1,1,1.8,1.3c0.7,0.3,1.4,0.4,2.3,0.4c0.5,0,0.9,0,1.3-0.1c0.4-0.1,0.8-0.1,1.1-0.3
			c0.3-0.1,0.6-0.3,0.9-0.5s0.6-0.4,0.9-0.7C764.9,760.8,765,760.7,765.1,760.7z"/>
		<path class="st2" d="M785.4,755.9c0,1.2-0.2,2.4-0.6,3.4s-0.9,1.9-1.7,2.7c-0.7,0.7-1.6,1.3-2.6,1.7s-2.1,0.6-3.3,0.6
			c-1.2,0-2.3-0.2-3.3-0.6c-1-0.4-1.9-1-2.6-1.7c-0.7-0.7-1.3-1.6-1.7-2.7s-0.6-2.2-0.6-3.4s0.2-2.4,0.6-3.4s0.9-1.9,1.7-2.7
			c0.7-0.7,1.6-1.3,2.6-1.7c1-0.4,2.1-0.6,3.3-0.6c1.2,0,2.3,0.2,3.3,0.6c1,0.4,1.9,1,2.6,1.7c0.7,0.7,1.3,1.6,1.7,2.7
			S785.4,754.7,785.4,755.9z M783.2,755.9c0-1-0.1-1.9-0.4-2.7c-0.3-0.8-0.7-1.5-1.2-2c-0.5-0.6-1.1-1-1.8-1.3s-1.5-0.4-2.4-0.4
			c-0.9,0-1.7,0.1-2.4,0.4s-1.3,0.7-1.8,1.3c-0.5,0.6-0.9,1.2-1.2,2c-0.3,0.8-0.4,1.7-0.4,2.7c0,1,0.1,1.9,0.4,2.7
			c0.3,0.8,0.7,1.5,1.2,2s1.1,1,1.8,1.3s1.5,0.4,2.4,0.4c0.9,0,1.7-0.1,2.4-0.4s1.3-0.7,1.8-1.3s0.9-1.2,1.2-2
			C783,757.8,783.2,756.9,783.2,755.9z"/>
		<path class="st2" d="M791.6,762.3h7.1v1.9h-9.4v-16.5h2.2V762.3z"/>
		<path class="st2" d="M804.3,762.3h7.1v1.9h-9.4v-16.5h2.2V762.3z"/>
		<path class="st2" d="M828.3,764.1h-1.7c-0.2,0-0.4,0-0.5-0.1c-0.1-0.1-0.2-0.2-0.3-0.4l-1.5-4h-7.4l-1.5,4
			c-0.1,0.1-0.1,0.3-0.3,0.4s-0.3,0.2-0.5,0.2h-1.7l6.6-16.5h2.3L828.3,764.1z M817.5,758h6.2l-2.6-6.7c-0.2-0.4-0.3-0.9-0.5-1.6
			c-0.1,0.3-0.2,0.6-0.2,0.9s-0.2,0.5-0.2,0.7L817.5,758z"/>
		<path class="st2" d="M831.3,764.1v-16.5h5.3c1,0,1.9,0.1,2.6,0.3c0.7,0.2,1.3,0.5,1.8,0.9c0.5,0.4,0.8,0.8,1,1.4
			c0.2,0.5,0.3,1.1,0.3,1.8c0,0.4-0.1,0.8-0.2,1.2c-0.1,0.4-0.3,0.7-0.6,1c-0.3,0.3-0.6,0.6-1,0.9c-0.4,0.3-0.8,0.5-1.4,0.6
			c1.2,0.2,2.1,0.7,2.7,1.3s0.9,1.5,0.9,2.5c0,0.7-0.1,1.3-0.4,1.9c-0.3,0.6-0.6,1.1-1.1,1.5s-1.1,0.7-1.8,1
			c-0.7,0.2-1.5,0.3-2.5,0.3H831.3z M833.5,755h2.9c0.6,0,1.2-0.1,1.6-0.2c0.5-0.1,0.8-0.3,1.1-0.6c0.3-0.2,0.5-0.5,0.7-0.9
			c0.1-0.3,0.2-0.7,0.2-1.1c0-1-0.3-1.7-0.9-2.1c-0.6-0.5-1.5-0.7-2.7-0.7h-3V755z M833.5,756.6v5.7h3.6c0.6,0,1.2-0.1,1.6-0.2
			c0.5-0.1,0.8-0.4,1.1-0.6s0.5-0.6,0.7-0.9c0.1-0.4,0.2-0.8,0.2-1.2c0-0.9-0.3-1.5-0.9-2c-0.6-0.5-1.5-0.7-2.7-0.7H833.5z"/>
		<path class="st2" d="M862.3,755.9c0,1.2-0.2,2.4-0.6,3.4c-0.4,1-0.9,1.9-1.7,2.7c-0.7,0.7-1.6,1.3-2.6,1.7c-1,0.4-2.1,0.6-3.3,0.6
			s-2.3-0.2-3.3-0.6s-1.9-1-2.6-1.7c-0.7-0.7-1.3-1.6-1.7-2.7s-0.6-2.2-0.6-3.4s0.2-2.4,0.6-3.4s0.9-1.9,1.7-2.7
			c0.7-0.7,1.6-1.3,2.6-1.7c1-0.4,2.1-0.6,3.3-0.6s2.3,0.2,3.3,0.6c1,0.4,1.9,1,2.6,1.7c0.7,0.7,1.3,1.6,1.7,2.7
			C862.1,753.5,862.3,754.7,862.3,755.9z M860,755.9c0-1-0.1-1.9-0.4-2.7c-0.3-0.8-0.7-1.5-1.2-2c-0.5-0.6-1.1-1-1.8-1.3
			s-1.5-0.4-2.4-0.4c-0.9,0-1.7,0.1-2.4,0.4s-1.3,0.7-1.8,1.3c-0.5,0.6-0.9,1.2-1.2,2c-0.3,0.8-0.4,1.7-0.4,2.7c0,1,0.1,1.9,0.4,2.7
			c0.3,0.8,0.7,1.5,1.2,2s1.1,1,1.8,1.3s1.5,0.4,2.4,0.4c0.9,0,1.7-0.1,2.4-0.4s1.3-0.7,1.8-1.3c0.5-0.6,0.9-1.2,1.2-2
			C859.9,757.8,860,756.9,860,755.9z"/>
		<path class="st2" d="M868.7,757.3v6.9h-2.2v-16.5h4.7c1,0,1.9,0.1,2.7,0.3c0.8,0.2,1.4,0.5,1.9,0.9c0.5,0.4,0.9,0.9,1.1,1.4
			c0.2,0.6,0.4,1.2,0.4,1.9c0,0.6-0.1,1.1-0.3,1.6s-0.5,1-0.8,1.4c-0.3,0.4-0.8,0.7-1.3,1c-0.5,0.3-1.1,0.5-1.7,0.6
			c0.3,0.2,0.5,0.4,0.7,0.7l4.8,6.5h-2c-0.4,0-0.7-0.2-0.9-0.5l-4.3-5.9c-0.1-0.2-0.3-0.3-0.4-0.4c-0.2-0.1-0.4-0.1-0.7-0.1H868.7z
			 M868.7,755.6h2.3c0.7,0,1.2-0.1,1.7-0.2c0.5-0.2,0.9-0.4,1.2-0.7c0.3-0.3,0.6-0.6,0.8-1s0.3-0.8,0.3-1.3c0-1-0.3-1.7-1-2.2
			c-0.6-0.5-1.6-0.7-2.9-0.7h-2.4V755.6z"/>
		<path class="st2" d="M895.5,764.1h-1.7c-0.2,0-0.4,0-0.5-0.1s-0.2-0.2-0.3-0.4l-1.5-4h-7.4l-1.5,4c-0.1,0.1-0.1,0.3-0.3,0.4
			c-0.1,0.1-0.3,0.2-0.5,0.2h-1.7l6.6-16.5h2.3L895.5,764.1z M884.7,758h6.2l-2.6-6.7c-0.2-0.4-0.3-0.9-0.5-1.6
			c-0.1,0.3-0.2,0.6-0.2,0.9c-0.1,0.3-0.2,0.5-0.2,0.7L884.7,758z"/>
		<path class="st2" d="M908.2,747.7v1.9h-5.3v14.6h-2.2v-14.6h-5.3v-1.9H908.2z"/>
		<path class="st2" d="M921.5,747.7v1.8h-7.9v5.5h6.4v1.7h-6.4v5.6h7.9v1.8h-10.2v-16.5H921.5z"/>
		<path class="st2" d="M929.9,762.9c0-0.2,0-0.4,0.1-0.6c0.1-0.2,0.2-0.3,0.3-0.5c0.1-0.1,0.3-0.2,0.5-0.3c0.2-0.1,0.4-0.1,0.6-0.1
			s0.4,0,0.6,0.1c0.2,0.1,0.3,0.2,0.5,0.3c0.1,0.1,0.2,0.3,0.3,0.5c0.1,0.2,0.1,0.4,0.1,0.6c0,0.2,0,0.4-0.1,0.6
			c-0.1,0.2-0.2,0.3-0.3,0.5c-0.1,0.1-0.3,0.2-0.5,0.3c-0.2,0.1-0.4,0.1-0.6,0.1s-0.4,0-0.6-0.1c-0.2-0.1-0.3-0.2-0.5-0.3
			c-0.1-0.1-0.2-0.3-0.3-0.5C930,763.3,929.9,763.1,929.9,762.9z"/>
		<path class="st2" d="M944.6,764.1h-2.2v-16.5h2.2V764.1z"/>
		<path class="st2" d="M951.5,747.7c0.1,0,0.2,0.2,0.3,0.3l9.5,12.4c0-0.2,0-0.4,0-0.6s0-0.4,0-0.5v-11.7h2v16.5h-1.1
			c-0.2,0-0.3,0-0.4-0.1c-0.1-0.1-0.2-0.2-0.3-0.3l-9.5-12.4c0,0.2,0,0.4,0,0.6c0,0.2,0,0.4,0,0.5v11.7h-2v-16.5h1.2
			C951.3,747.7,951.4,747.7,951.5,747.7z"/>
		<path class="st2" d="M969.8,747.7c0.1,0,0.2,0.2,0.3,0.3l9.5,12.4c0-0.2,0-0.4,0-0.6s0-0.4,0-0.5v-11.7h2v16.5h-1.1
			c-0.2,0-0.3,0-0.4-0.1c-0.1-0.1-0.2-0.2-0.3-0.3l-9.5-12.4c0,0.2,0,0.4,0,0.6c0,0.2,0,0.4,0,0.5v11.7h-2v-16.5h1.2
			C969.5,747.7,969.7,747.7,969.8,747.7z"/>
		<path class="st2" d="M1001.8,755.9c0,1.2-0.2,2.4-0.6,3.4s-0.9,1.9-1.7,2.7c-0.7,0.7-1.6,1.3-2.6,1.7s-2.1,0.6-3.3,0.6
			c-1.2,0-2.3-0.2-3.3-0.6c-1-0.4-1.9-1-2.6-1.7c-0.7-0.7-1.3-1.6-1.7-2.7s-0.6-2.2-0.6-3.4s0.2-2.4,0.6-3.4s0.9-1.9,1.7-2.7
			c0.7-0.7,1.6-1.3,2.6-1.7c1-0.4,2.1-0.6,3.3-0.6c1.2,0,2.3,0.2,3.3,0.6c1,0.4,1.9,1,2.6,1.7c0.7,0.7,1.3,1.6,1.7,2.7
			S1001.8,754.7,1001.8,755.9z M999.5,755.9c0-1-0.1-1.9-0.4-2.7c-0.3-0.8-0.7-1.5-1.2-2c-0.5-0.6-1.1-1-1.8-1.3s-1.5-0.4-2.4-0.4
			c-0.9,0-1.7,0.1-2.4,0.4s-1.3,0.7-1.8,1.3c-0.5,0.6-0.9,1.2-1.2,2c-0.3,0.8-0.4,1.7-0.4,2.7c0,1,0.1,1.9,0.4,2.7
			c0.3,0.8,0.7,1.5,1.2,2s1.1,1,1.8,1.3s1.5,0.4,2.4,0.4c0.9,0,1.7-0.1,2.4-0.4s1.3-0.7,1.8-1.3s0.9-1.2,1.2-2
			C999.3,757.8,999.5,756.9,999.5,755.9z"/>
		<path class="st2" d="M1003.2,747.7h1.8c0.2,0,0.4,0,0.5,0.1s0.2,0.2,0.3,0.4l4.7,11.6c0.1,0.3,0.2,0.5,0.3,0.9s0.2,0.6,0.3,1
			c0.1-0.3,0.1-0.6,0.2-1c0.1-0.3,0.2-0.6,0.3-0.9l4.6-11.6c0.1-0.1,0.1-0.3,0.3-0.4s0.3-0.2,0.5-0.2h1.8l-6.7,16.5h-2L1003.2,747.7
			z"/>
		<path class="st2" d="M1033.6,764.1h-1.7c-0.2,0-0.4,0-0.5-0.1c-0.1-0.1-0.2-0.2-0.3-0.4l-1.5-4h-7.4l-1.5,4
			c-0.1,0.1-0.1,0.3-0.3,0.4s-0.3,0.2-0.5,0.2h-1.7l6.6-16.5h2.3L1033.6,764.1z M1022.8,758h6.2l-2.6-6.7c-0.2-0.4-0.3-0.9-0.5-1.6
			c-0.1,0.3-0.2,0.6-0.2,0.9s-0.2,0.5-0.2,0.7L1022.8,758z"/>
		<path class="st2" d="M1046.3,747.7v1.9h-5.3v14.6h-2.2v-14.6h-5.3v-1.9H1046.3z"/>
		<path class="st2" d="M1059.6,747.7v1.8h-7.9v5.5h6.4v1.7h-6.4v5.6h7.9v1.8h-10.2v-16.5H1059.6z"/>
		<path class="st2" d="M1068,762.9c0-0.2,0-0.4,0.1-0.6c0.1-0.2,0.2-0.3,0.3-0.5c0.1-0.1,0.3-0.2,0.5-0.3c0.2-0.1,0.4-0.1,0.6-0.1
			c0.2,0,0.4,0,0.6,0.1c0.2,0.1,0.3,0.2,0.5,0.3c0.1,0.1,0.2,0.3,0.3,0.5c0.1,0.2,0.1,0.4,0.1,0.6c0,0.2,0,0.4-0.1,0.6
			c-0.1,0.2-0.2,0.3-0.3,0.5c-0.1,0.1-0.3,0.2-0.5,0.3c-0.2,0.1-0.4,0.1-0.6,0.1c-0.2,0-0.4,0-0.6-0.1c-0.2-0.1-0.3-0.2-0.5-0.3
			c-0.1-0.1-0.2-0.3-0.3-0.5C1068.1,763.3,1068,763.1,1068,762.9z"/>
		<path class="st2" d="M1082.7,764.1h-2.2v-16.5h2.2V764.1z"/>
		<path class="st2" d="M1096.4,758.8c0.1,0.2,0.2,0.4,0.2,0.6c0.1-0.2,0.2-0.4,0.2-0.6c0.1-0.2,0.2-0.4,0.3-0.6l5.6-10.1
			c0.1-0.2,0.2-0.3,0.3-0.3s0.3-0.1,0.5-0.1h1.6v16.5h-2V752c0-0.2,0-0.3,0-0.5s0-0.4,0-0.6l-5.6,10.3c-0.2,0.3-0.5,0.5-0.8,0.5
			h-0.3c-0.3,0-0.6-0.2-0.8-0.5l-5.8-10.3c0,0.2,0,0.4,0.1,0.6c0,0.2,0,0.4,0,0.5v12.1h-2v-16.5h1.6c0.2,0,0.4,0,0.5,0.1
			s0.2,0.1,0.3,0.3l5.7,10.1C1096.2,758.4,1096.3,758.6,1096.4,758.8z"/>
		<path class="st2" d="M1112.5,758v6.2h-2.2v-16.5h4.9c1,0,1.9,0.1,2.7,0.4c0.8,0.2,1.4,0.6,1.9,1s0.9,1,1.1,1.6
			c0.2,0.6,0.4,1.3,0.4,2.1c0,0.8-0.1,1.5-0.4,2.1c-0.3,0.6-0.7,1.2-1.2,1.6c-0.5,0.5-1.2,0.8-1.9,1.1c-0.8,0.3-1.6,0.4-2.6,0.4
			H1112.5z M1112.5,756.2h2.6c0.6,0,1.2-0.1,1.7-0.3c0.5-0.2,0.9-0.4,1.2-0.7s0.6-0.7,0.7-1.1c0.2-0.4,0.3-0.9,0.3-1.4
			c0-1.1-0.3-1.9-1-2.5c-0.6-0.6-1.6-0.9-2.9-0.9h-2.6V756.2z"/>
		<path class="st2" d="M1136.9,764.1h-1.7c-0.2,0-0.4,0-0.5-0.1c-0.1-0.1-0.2-0.2-0.3-0.4l-1.5-4h-7.4l-1.5,4
			c-0.1,0.1-0.1,0.3-0.3,0.4s-0.3,0.2-0.5,0.2h-1.7l6.6-16.5h2.3L1136.9,764.1z M1126.2,758h6.2l-2.6-6.7c-0.2-0.4-0.3-0.9-0.5-1.6
			c-0.1,0.3-0.2,0.6-0.2,0.9s-0.2,0.5-0.2,0.7L1126.2,758z"/>
		<path class="st2" d="M1151,760.7c0.1,0,0.2,0,0.3,0.1l0.9,1c-0.7,0.8-1.5,1.4-2.5,1.8c-1,0.4-2.1,0.7-3.5,0.7
			c-1.2,0-2.3-0.2-3.2-0.6c-1-0.4-1.8-1-2.5-1.7c-0.7-0.7-1.2-1.6-1.6-2.7c-0.4-1-0.6-2.2-0.6-3.4c0-1.2,0.2-2.4,0.6-3.4
			s1-1.9,1.7-2.7c0.7-0.7,1.6-1.3,2.6-1.7s2.1-0.6,3.4-0.6c1.2,0,2.3,0.2,3.1,0.6c0.9,0.4,1.7,0.9,2.3,1.5l-0.7,1
			c-0.1,0.1-0.1,0.1-0.2,0.2s-0.2,0.1-0.3,0.1c-0.1,0-0.2,0-0.3-0.1s-0.2-0.2-0.4-0.3c-0.2-0.1-0.3-0.2-0.5-0.3s-0.5-0.2-0.7-0.3
			c-0.3-0.1-0.6-0.2-1-0.3s-0.8-0.1-1.3-0.1c-0.9,0-1.7,0.2-2.4,0.5s-1.4,0.7-1.9,1.3c-0.5,0.6-0.9,1.2-1.2,2s-0.4,1.7-0.4,2.7
			c0,1,0.1,1.9,0.4,2.7s0.7,1.5,1.2,2s1.1,1,1.8,1.3c0.7,0.3,1.4,0.4,2.3,0.4c0.5,0,0.9,0,1.3-0.1c0.4-0.1,0.8-0.1,1.1-0.3
			c0.3-0.1,0.6-0.3,0.9-0.5s0.6-0.4,0.9-0.7C1150.8,760.8,1150.9,760.7,1151,760.7z"/>
		<path class="st2" d="M1167.3,747.7v1.9h-5.3v14.6h-2.2v-14.6h-5.3v-1.9H1167.3z"/>
	</g>
</g>
</svg>
